<svg xmlns="http://www.w3.org/2000/svg" fill-rule="evenodd" image-rendering="optimizeQuality" shape-rendering="geometricPrecision" viewBox="0 0 5120 2827"><path d="M31 1329a4658 4658 0 01 450-474C1082 307 1758 15 2455 1c696-15 1410 248 2091 810a5255 5255 0 01 543 520 117 117 0 01 8 147c-197 280-420 514-660 706a2880 2880 0 01-1791 643c-630 4-1269-199-1835-599a3880 3880 0 01-786-746 117 117 0 01 6-153zM2560 832a580 580 0 11-555 410 296 296 0 10 380-383 580 580 0 01 175-27zm1072-335a1415 1415 0 01 231 377 1404 1404 0 01 108 540 1407 1407 0 01-107 539 1415 1415 0 01-306 458l-20 19a2740 2740 0 00 754-430 3140 3140 0 00 560-582A4960 4960 0 00 4398 990a3670 3670 0 00-766-494zm-2120 1860a1408 1408 0 01-255-404 1405 1405 0 01-108-540 1403 1403 0 01 397-980 3224 3224 0 00-908 595 4344 4344 0 00-370 382 3596 3596 0 00 678 627 3170 3170 0 00 566 320zM3010 325a1172 1172 0 00-1282 256 1183 1183 0 00-344 831c0 160 31 312 89 450a1177 1177 0 00 255 382A1184 1184 0 00 2560 2590a1175 1175 0 00 832-2008A1183 1183 0 00 3010 326" fill-rule="nonzero"/></svg>
