<svg width="24" height="24" viewBox="0 0 24 24" fill="none" xmlns="http://www.w3.org/2000/svg">
<path d="M22.125 15.375V4.125C22.125 3.52826 21.8879 2.95597 21.466 2.53401C21.044 2.11205 20.4717 1.875 19.875 1.875H12M22.125 15.375V15.5685C22.1249 16.1652 21.8877 16.7374 21.4657 17.1593L17.1593 21.4657C16.7374 21.8877 16.1652 22.1249 15.5685 22.125H15.375M22.125 15.375H17.625C17.0283 15.375 16.456 15.6121 16.034 16.034C15.6121 16.456 15.375 17.0283 15.375 17.625V22.125M15.375 22.125H4.125C3.52826 22.125 2.95597 21.8879 2.53401 21.466C2.11205 21.044 1.875 20.4717 1.875 19.875V12M13.125 6.375H17.625M9.75 10.875H17.625M6.375 15.375H10.875M5.25 1.875V5.25M5.25 5.25V8.625M5.25 5.25H8.625M5.25 5.25H1.875" stroke="#222222" stroke-width="2" stroke-linecap="round" stroke-linejoin="round"/>
</svg>
