<svg width="30" height="30" viewBox="0 0 30 30" fill="none" xmlns="http://www.w3.org/2000/svg">
<path d="M25.125 18.375V7.125C25.125 6.52826 24.8879 5.95597 24.466 5.53401C24.044 5.11205 23.4717 4.875 22.875 4.875H15M25.125 18.375V18.5685C25.1249 19.1652 24.8877 19.7374 24.4657 20.1593L20.1593 24.4657C19.7374 24.8877 19.1652 25.1249 18.5685 25.125H18.375M25.125 18.375H20.625C20.0283 18.375 19.456 18.6121 19.034 19.034C18.6121 19.456 18.375 20.0283 18.375 20.625V25.125M18.375 25.125H7.125C6.52826 25.125 5.95597 24.8879 5.53401 24.466C5.11205 24.044 4.875 23.4717 4.875 22.875V15M16.125 9.375H20.625M12.75 13.875H20.625M9.375 18.375H13.875M8.25 4.875V8.25M8.25 8.25V11.625M8.25 8.25H11.625M8.25 8.25H4.875" stroke="#222222" stroke-width="2" stroke-linecap="round" stroke-linejoin="round"/>
</svg>
