<svg width="25" height="26" viewBox="0 0 25 26" fill="none" xmlns="http://www.w3.org/2000/svg">
<path d="M6.25 8.83325C6.25 7.17565 6.90848 5.58594 8.08058 4.41383C9.25269 3.24173 10.8424 2.58325 12.5 2.58325C14.1576 2.58325 15.7473 3.24173 16.9194 4.41383C18.0915 5.58594 18.75 7.17565 18.75 8.83325V11.8718C18.75 12.6041 18.9875 13.3166 19.4271 13.903L21.5625 16.7499C21.7366 16.9821 21.8426 17.2581 21.8687 17.5471C21.8947 17.8361 21.8398 18.1266 21.71 18.3862C21.5803 18.6457 21.3808 18.864 21.134 19.0166C20.8871 19.1691 20.6027 19.2499 20.3125 19.2499H4.6875C4.39733 19.2499 4.11288 19.1691 3.86605 19.0166C3.61921 18.864 3.41973 18.6457 3.28996 18.3862C3.16019 18.1266 3.10525 17.8361 3.13131 17.5471C3.15737 17.2581 3.2634 16.9821 3.4375 16.7499L5.57292 13.903C6.01242 13.317 6.25 12.6043 6.25 11.8718V8.83325ZM12.5 22.8958C11.7148 22.8956 10.9506 22.6421 10.3209 22.173C9.69131 21.7038 9.22988 21.044 9.00521 20.2916H15.9948C15.7701 21.044 15.3087 21.7038 14.6791 22.173C14.0494 22.6421 13.2852 22.8956 12.5 22.8958Z" fill="#222222"/>
<circle cx="19.5" cy="4.5" r="3.5" fill="#A197EE"/>
</svg>
