<?xml version="1.0" encoding="utf-8"?>
<!-- Svg Vector Icons : http://www.onlinewebfonts.com/icon -->
<!DOCTYPE svg PUBLIC "-//W3C//DTD SVG 1.1//EN" "http://www.w3.org/Graphics/SVG/1.1/DTD/svg11.dtd">
<svg version="1.1" xmlns="http://www.w3.org/2000/svg" xmlns:xlink="http://www.w3.org/1999/xlink" x="0px" y="0px" viewBox="0 0 256 256" enable-background="new 0 0 256 256" xml:space="preserve">
<metadata> Svg Vector Icons : http://www.onlinewebfonts.com/icon </metadata>
<g><g><g><path fill="#000000" d="M120.6,10.2c-50.3,2.7-94.3,38.9-107,88.1c-4.8,18.3-4.8,40-0.2,58.5c8.4,33.7,32.3,62.9,63.9,77.9c16.6,7.8,32,11.3,50.7,11.3c14.6,0,26.1-1.9,39.2-6.5c29.3-10.3,54.1-32.6,67.5-60.7c7.8-16.5,11.3-32.3,11.3-50.7c0-32-12-60.9-34.5-83.4C187.1,20.2,155.7,8.4,120.6,10.2z M136.9,19.8c20.1,1.1,42.5,10,59.6,23.8c6.2,5,15.4,14.7,20.2,21.4c5.1,7.1,12,20.8,14.7,29.2c7,21.6,7,45.9,0,67.6c-2.8,8.4-9.6,22.1-14.7,29.3c-5.1,7.2-18.3,20.4-25.5,25.5c-11.5,8.1-27.6,15-42.5,18.2c-5.4,1.2-7.9,1.3-20.6,1.3c-12.7,0-15.2-0.1-20.6-1.3c-14.9-3.2-31-10.1-42.5-18.2c-7.2-5.1-20.4-18.3-25.5-25.5c-5.1-7.2-12-20.9-14.7-29.3c-4.2-12.9-5.8-26.3-5-41c1.8-33.4,20.4-65.2,49.1-84c11-7.2,25.3-13,38.3-15.6c6.1-1.2,18.5-2.3,22.4-1.9C130.5,19.5,133.8,19.6,136.9,19.8z"/><path fill="#000000" d="M124.8,77.7l-1.5,1.4v22.2v22.1h-22.1H79l-1.4,1.5c-1.9,1.9-1.9,4.6,0,6.5l1.4,1.5h22.2h22.1v22.1v22.2l1.5,1.4c1.9,1.9,4.6,1.9,6.5,0l1.5-1.4v-22.2v-22.1h22.1H177l1.4-1.5c1.9-1.9,1.9-4.6,0-6.5l-1.4-1.5h-22.2h-22.1v-22.1V79.1l-1.5-1.4c-0.9-0.9-2.1-1.5-3.2-1.5C126.9,76.2,125.7,76.7,124.8,77.7z"/></g></g></g>
</svg>