<?xml version="1.0" encoding="utf-8"?>
<!-- Svg Vector Icons : http://www.onlinewebfonts.com/icon -->
<!DOCTYPE svg PUBLIC "-//W3C//DTD SVG 1.1//EN" "http://www.w3.org/Graphics/SVG/1.1/DTD/svg11.dtd">
<svg version="1.1" xmlns="http://www.w3.org/2000/svg" xmlns:xlink="http://www.w3.org/1999/xlink" x="0px" y="0px" viewBox="0 0 256 256" enable-background="new 0 0 256 256" xml:space="preserve">
<metadata> Svg Vector Icons : http://www.onlinewebfonts.com/icon </metadata>
<g><g><g><path fill="#000000" d="M117.7,10.2c-22,2.1-42.6,10.2-60.9,23.9C50.9,38.5,38.5,50.9,34,56.9c-9.9,13.3-16.7,27.2-20.5,42.3c-2.8,11.2-3.5,17-3.5,28.8c0,11.9,0.7,17.7,3.5,28.8c10.5,41.3,43.9,74.8,85.3,85.6c10.5,2.7,17.2,3.5,29.2,3.5c8.7,0,11.9-0.2,17.1-1c20.1-3.3,37.7-10.7,54.1-22.9c6-4.5,18.4-16.9,22.9-22.9c12.2-16.3,19.7-34,22.9-54.1c0.8-5.2,1-8.4,1-17.1c0-8.7-0.2-11.9-1-17.1c-4-24.9-14.8-46.6-31.9-64.3c-12.7-13.2-26.8-22.6-43.5-29.2c-6.6-2.6-17.9-5.5-25.4-6.6C137.7,10,123.8,9.7,117.7,10.2z M143.5,20.4c19.5,2.9,37.6,10.6,52.7,22.5c4.4,3.4,13.6,12.7,17.1,17.1c11.9,15.1,19.4,32.8,22.5,52.9c1.1,7.5,1.1,22.9,0,30.4c-3.1,20.1-10.6,37.8-22.5,52.9c-3.5,4.4-12.7,13.6-17.1,17.1c-15.1,11.9-32.8,19.4-52.9,22.5c-7.5,1.1-22.9,1.1-30.4,0c-20.1-3.1-37.8-10.6-52.9-22.5c-4.4-3.4-13.6-12.7-17.1-17.1c-12.2-15.5-20-34-22.8-54.4c-0.3-2.5-0.6-8.7-0.6-13.8c0-13.4,1.6-23.4,5.7-35.6c9.1-27,28.6-49.2,54.1-61.8c10.9-5.4,23.5-9.1,34.9-10.4c2.5-0.3,5.3-0.6,6.2-0.7C123.7,19.2,138.8,19.7,143.5,20.4z"/><path fill="#000000" d="M147.8,102.3l-19.3,19.3l-19.1-19.1C98.9,92,90,83.4,89.8,83.4c-0.3,0-1.9,1.4-3.6,3.1l-3.1,3.1l19.4,19.4l19.3,19.3l-19.3,19.3L83.1,167l3.3,3.3l3.3,3.3l19.3-19.3l19.4-19.4l19.4,19.4l19.3,19.3l3.3-3.3l3.3-3.3l-19.1-19.1c-10.5-10.5-19.1-19.3-19.1-19.6s8.6-9.1,19.1-19.6l19.1-19.1l-3.3-3.3l-3.3-3.3L147.8,102.3z"/></g></g></g>
</svg>