<svg width="30" height="30" viewBox="0 0 30 30" fill="none" xmlns="http://www.w3.org/2000/svg">
<path d="M7.5 10.5V18.5C7.5 20.3856 7.5 21.3284 8.08579 21.9142C8.67157 22.5 9.61438 22.5 11.5 22.5H18.5C20.3856 22.5 21.3284 22.5 21.9142 21.9142C22.5 21.3284 22.5 20.3856 22.5 18.5V10.5M7.5 10.5H22.5M7.5 10.5H5.92857C5.76151 10.5 5.67798 10.5 5.61699 10.4617C5.58519 10.4417 5.5583 10.4148 5.53832 10.383C5.5 10.322 5.5 10.2385 5.5 10.0714V10.0714C5.5 9.06905 5.5 8.56786 5.72991 8.20195C5.8498 8.01115 6.01115 7.8498 6.20195 7.72991C6.56786 7.5 7.06905 7.5 8.07143 7.5H21.9286C22.931 7.5 23.4321 7.5 23.798 7.72991C23.9889 7.8498 24.1502 8.01115 24.2701 8.20195C24.5 8.56786 24.5 9.06905 24.5 10.0714V10.0714C24.5 10.2385 24.5 10.322 24.4617 10.383C24.4417 10.4148 24.4148 10.4417 24.383 10.4617C24.322 10.5 24.2385 10.5 24.0714 10.5H22.5" stroke="#222222"/>
<path d="M12.5 17.5H17.5" stroke="#222222" stroke-linecap="round"/>
</svg>
