<?xml version="1.0" encoding="utf-8"?>
<!-- Svg Vector Icons : http://www.onlinewebfonts.com/icon -->
<!DOCTYPE svg PUBLIC "-//W3C//DTD SVG 1.1//EN" "http://www.w3.org/Graphics/SVG/1.1/DTD/svg11.dtd">
<svg version="1.1" xmlns="http://www.w3.org/2000/svg" xmlns:xlink="http://www.w3.org/1999/xlink" x="0px" y="0px" viewBox="0 0 256 256" enable-background="new 0 0 256 256" xml:space="preserve">
<metadata> Svg Vector Icons : http://www.onlinewebfonts.com/icon </metadata>
<g><g><g><g><path fill="#000000" d="M116.1,50.8V184c0,6.6,5.4,12,11.9,12c6.6,0,12-5.4,12-12V50.8l23,23c4.7,4.6,12.2,4.6,16.9,0c2.2-2.3,3.5-5.2,3.5-8.4c0-3.2-1.2-6.2-3.5-8.5l-43.4-43.4c-1.1-1.1-2.4-2-4-2.7c-1.4-0.6-3-0.9-4.5-0.9c-1.5,0-3.1,0.3-4.6,0.9c-1.5,0.6-2.8,1.5-3.9,2.6L76.1,56.9c-2.3,2.3-3.5,5.2-3.5,8.5c0,3.2,1.3,6.2,3.5,8.5c4.6,4.6,12.2,4.6,16.9,0L116.1,50.8z"/><path fill="#000000" d="M211.1,206.2c0,8.8-7.2,15.9-15.9,15.9H60.8c-8.8,0-15.9-7.2-15.9-15.9v-35.4H21v35.4c0,22,17.9,39.8,39.8,39.8h134.4c22,0,39.8-17.9,39.8-39.8v-35.4h-23.9V206.2L211.1,206.2z"/></g></g><g></g><g></g><g></g><g></g><g></g><g></g><g></g><g></g><g></g><g></g><g></g><g></g><g></g><g></g><g></g></g></g>
</svg>